<svg xmlns="http://www.w3.org/2000/svg" xmlns:xlink="http://www.w3.org/1999/xlink" width="150" zoomAndPan="magnify" viewBox="0 0 112.5 74.999997" height="100" preserveAspectRatio="xMidYMid meet" version="1.0"><defs><g/><clipPath id="bb22a48970"><path d="M 0 21 L 24 21 L 24 41 L 0 41 Z M 0 21 " clip-rule="nonzero"/></clipPath><clipPath id="a35b508898"><path d="M 0.0664062 34.789062 L 19.101562 15.894531 L 30.4375 27.320312 L 11.398438 46.210938 Z M 0.0664062 34.789062 " clip-rule="nonzero"/></clipPath><clipPath id="5d83f1d1ae"><path d="M 0.0664062 34.789062 L 19.101562 15.894531 L 30.4375 27.320312 L 11.398438 46.210938 Z M 0.0664062 34.789062 " clip-rule="nonzero"/></clipPath><clipPath id="ed8bfe57b1"><path d="M 0.0976562 34.757812 L 17.535156 17.453125 L 27.578125 27.578125 L 10.144531 44.878906 Z M 0.0976562 34.757812 " clip-rule="nonzero"/></clipPath><clipPath id="8f62df4fc6"><path d="M 0.0976562 34.757812 L 17.523438 17.460938 L 27.558594 27.574219 L 10.132812 44.871094 Z M 0.0976562 34.757812 " clip-rule="nonzero"/></clipPath><clipPath id="385eba3d5e"><path d="M 105.9375 31.191406 L 108 31.191406 L 108 47.285156 L 105.9375 47.285156 Z M 105.9375 31.191406 " clip-rule="nonzero"/></clipPath><clipPath id="67f7bc54ac"><path d="M 108 31.191406 L 111.300781 31.191406 L 111.300781 47.285156 L 108 47.285156 Z M 108 31.191406 " clip-rule="nonzero"/></clipPath></defs><g clip-path="url(#bb22a48970)"><g clip-path="url(#a35b508898)"><g clip-path="url(#5d83f1d1ae)"><g clip-path="url(#ed8bfe57b1)"><g clip-path="url(#8f62df4fc6)"><path fill="#000000" d="M 2.1875 35.3125 C 3.472656 35.328125 4.753906 35.371094 6.03125 35.34375 C 6.722656 35.328125 7.28125 34.699219 7.289062 34.003906 C 7.289062 33.75 7.222656 33.464844 7.101562 33.246094 C 6.679688 32.472656 6.214844 31.726562 5.773438 30.972656 C 5.148438 31.0625 4.808594 30.867188 4.78125 30.421875 C 4.757812 30.046875 5.039062 29.746094 5.410156 29.742188 C 5.84375 29.734375 6.074219 30.046875 6.039062 30.59375 C 6.960938 30.949219 7.882812 31.320312 8.816406 31.652344 C 9.90625 32.042969 10.90625 31.167969 10.703125 30.027344 C 10.6875 29.9375 10.667969 29.847656 10.648438 29.757812 C 10.417969 28.804688 10.191406 27.855469 9.988281 27.019531 C 9.707031 26.847656 9.460938 26.757812 9.304688 26.585938 C 9.105469 26.371094 9.125 26.089844 9.320312 25.855469 C 9.527344 25.609375 9.792969 25.523438 10.09375 25.671875 C 10.371094 25.8125 10.53125 26.0625 10.433594 26.355469 C 10.339844 26.628906 10.464844 26.734375 10.648438 26.871094 C 11.359375 27.402344 12.066406 27.9375 12.769531 28.484375 C 13.242188 28.851562 13.75 28.992188 14.320312 28.742188 C 14.914062 28.476562 15.164062 27.992188 15.191406 27.359375 C 15.226562 26.4375 15.28125 25.515625 15.324219 24.671875 C 15.117188 24.445312 14.910156 24.285156 14.796875 24.070312 C 14.730469 23.949219 14.777344 23.726562 14.84375 23.585938 C 15.011719 23.238281 15.453125 23.160156 15.765625 23.390625 C 16.105469 23.640625 16.113281 24.007812 15.761719 24.445312 C 16.304688 25.195312 16.816406 25.980469 17.410156 26.703125 C 18.070312 27.5 19.308594 27.3125 19.738281 26.367188 C 20.246094 25.242188 20.714844 24.09375 21.195312 22.964844 C 20.746094 22.5 20.6875 22.09375 21.027344 21.8125 C 21.296875 21.589844 21.714844 21.632812 21.921875 21.902344 C 22.21875 22.285156 22.113281 22.625 21.566406 22.972656 C 22.074219 25.980469 22.582031 28.992188 23.09375 32.007812 C 21.710938 32.066406 20.480469 32.550781 19.3125 33.144531 C 17.890625 33.867188 16.492188 34.648438 15.152344 35.511719 C 13.414062 36.632812 11.800781 37.933594 10.460938 39.535156 C 10.3125 39.710938 10.175781 39.898438 10.050781 40.089844 C 9.925781 40.28125 9.820312 40.488281 9.6875 40.714844 C 9.035156 40.28125 8.382812 39.847656 7.730469 39.414062 C 5.921875 38.214844 4.113281 37.019531 2.308594 35.816406 C 2.179688 35.730469 2.089844 35.65625 1.917969 35.78125 C 1.542969 36.054688 1.164062 35.957031 0.960938 35.574219 C 0.785156 35.246094 0.921875 34.875 1.28125 34.714844 C 1.636719 34.554688 1.992188 34.734375 2.140625 35.15625 C 2.15625 35.195312 2.167969 35.238281 2.1875 35.3125 " fill-opacity="1" fill-rule="nonzero"/></g></g></g></g></g><g fill="#000000" fill-opacity="1"><g transform="translate(9.761425, 48.60378)"><g><path d="M 10.015625 0.265625 C 8.234375 0.265625 6.640625 -0.0859375 5.234375 -0.796875 C 3.835938 -1.515625 2.75 -2.503906 1.96875 -3.765625 C 1.1875 -5.023438 0.796875 -6.457031 0.796875 -8.0625 C 0.796875 -9.664062 1.1875 -11.09375 1.96875 -12.34375 C 2.75 -13.601562 3.835938 -14.582031 5.234375 -15.28125 C 6.640625 -15.976562 8.234375 -16.328125 10.015625 -16.328125 C 11.835938 -16.328125 13.410156 -15.9375 14.734375 -15.15625 C 16.054688 -14.375 16.992188 -13.296875 17.546875 -11.921875 L 13.1875 -9.6875 C 12.457031 -11.132812 11.390625 -11.859375 9.984375 -11.859375 C 8.984375 -11.859375 8.148438 -11.519531 7.484375 -10.84375 C 6.816406 -10.175781 6.484375 -9.25 6.484375 -8.0625 C 6.484375 -6.851562 6.816406 -5.90625 7.484375 -5.21875 C 8.148438 -4.539062 8.984375 -4.203125 9.984375 -4.203125 C 11.390625 -4.203125 12.457031 -4.925781 13.1875 -6.375 L 17.546875 -4.15625 C 16.992188 -2.769531 16.054688 -1.6875 14.734375 -0.90625 C 13.410156 -0.125 11.835938 0.265625 10.015625 0.265625 Z M 10.015625 0.265625 "/></g></g></g><g fill="#000000" fill-opacity="1"><g transform="translate(25.118765, 48.60378)"><g><path d="M 7.171875 -14.140625 C 7.742188 -14.867188 8.488281 -15.414062 9.40625 -15.78125 C 10.332031 -16.144531 11.382812 -16.328125 12.5625 -16.328125 L 12.5625 -11.265625 C 12.050781 -11.328125 11.628906 -11.359375 11.296875 -11.359375 C 10.085938 -11.359375 9.140625 -11.03125 8.453125 -10.375 C 7.773438 -9.71875 7.4375 -8.71875 7.4375 -7.375 L 7.4375 0 L 1.8125 0 L 1.8125 -16.0625 L 7.171875 -16.0625 Z M 7.171875 -14.140625 "/></g></g></g><g fill="#000000" fill-opacity="1"><g transform="translate(35.732521, 48.60378)"><g><path d="M 9.875 0.265625 C 8.15625 0.265625 6.601562 -0.0859375 5.21875 -0.796875 C 3.832031 -1.515625 2.75 -2.503906 1.96875 -3.765625 C 1.1875 -5.023438 0.796875 -6.457031 0.796875 -8.0625 C 0.796875 -9.644531 1.1875 -11.066406 1.96875 -12.328125 C 2.75 -13.597656 3.828125 -14.582031 5.203125 -15.28125 C 6.578125 -15.976562 8.132812 -16.328125 9.875 -16.328125 C 11.613281 -16.328125 13.171875 -15.976562 14.546875 -15.28125 C 15.929688 -14.582031 17.007812 -13.601562 17.78125 -12.34375 C 18.550781 -11.09375 18.9375 -9.664062 18.9375 -8.0625 C 18.9375 -6.457031 18.550781 -5.023438 17.78125 -3.765625 C 17.007812 -2.503906 15.929688 -1.515625 14.546875 -0.796875 C 13.171875 -0.0859375 11.613281 0.265625 9.875 0.265625 Z M 9.875 -4.203125 C 10.863281 -4.203125 11.671875 -4.539062 12.296875 -5.21875 C 12.929688 -5.90625 13.25 -6.851562 13.25 -8.0625 C 13.25 -9.25 12.929688 -10.175781 12.296875 -10.84375 C 11.671875 -11.519531 10.863281 -11.859375 9.875 -11.859375 C 8.882812 -11.859375 8.070312 -11.519531 7.4375 -10.84375 C 6.800781 -10.175781 6.484375 -9.25 6.484375 -8.0625 C 6.484375 -6.851562 6.800781 -5.90625 7.4375 -5.21875 C 8.070312 -4.539062 8.882812 -4.203125 9.875 -4.203125 Z M 9.875 -4.203125 "/></g></g></g><g fill="#000000" fill-opacity="1"><g transform="translate(52.957639, 48.60378)"><g><path d="M 28.421875 -16.0625 L 22.703125 0 L 17.25 0 L 14.234375 -8.75 L 11.078125 0 L 5.625 0 L -0.09375 -16.0625 L 5.25 -16.0625 L 8.53125 -6.34375 L 11.9375 -16.0625 L 16.75 -16.0625 L 20.0625 -6.25 L 23.46875 -16.0625 Z M 28.421875 -16.0625 "/></g></g></g><g fill="#000000" fill-opacity="1"><g transform="translate(78.780498, 48.60378)"><g><path d="M 12.265625 -16.328125 C 14.265625 -16.328125 15.867188 -15.734375 17.078125 -14.546875 C 18.296875 -13.367188 18.90625 -11.582031 18.90625 -9.1875 L 18.90625 0 L 13.28125 0 L 13.28125 -8.265625 C 13.28125 -10.460938 12.398438 -11.5625 10.640625 -11.5625 C 9.671875 -11.5625 8.894531 -11.242188 8.3125 -10.609375 C 7.726562 -9.972656 7.4375 -9.023438 7.4375 -7.765625 L 7.4375 0 L 1.8125 0 L 1.8125 -16.0625 L 7.171875 -16.0625 L 7.171875 -14.3125 C 7.804688 -14.96875 8.554688 -15.46875 9.421875 -15.8125 C 10.296875 -16.15625 11.242188 -16.328125 12.265625 -16.328125 Z M 12.265625 -16.328125 "/></g></g></g><g clip-path="url(#385eba3d5e)"><path fill="#100f0d" d="M 107.796875 31.363281 L 107.792969 31.363281 C 107.710938 31.363281 107.648438 34.5 107.648438 34.617188 L 107.648438 35.042969 C 107.648438 35.144531 107.59375 35.230469 107.523438 35.230469 C 107.453125 35.230469 107.394531 35.148438 107.394531 35.042969 L 107.394531 34.617188 C 107.394531 34.5 107.332031 31.363281 107.253906 31.363281 C 107.171875 31.363281 107.109375 34.5 107.109375 34.617188 L 107.109375 35.042969 C 107.109375 35.144531 107.054688 35.230469 106.984375 35.230469 C 106.914062 35.230469 106.855469 35.148438 106.855469 35.042969 L 106.855469 34.617188 C 106.855469 34.5 106.792969 31.363281 106.714844 31.363281 C 106.632812 31.363281 106.570312 34.5 106.570312 34.617188 L 106.570312 35.042969 C 106.570312 35.144531 106.515625 35.230469 106.445312 35.230469 C 106.375 35.230469 106.316406 35.148438 106.316406 35.042969 L 106.316406 34.617188 C 106.316406 34.5 106.253906 31.363281 106.175781 31.363281 L 106.167969 31.363281 C 106.089844 31.363281 106.027344 34.492188 106.023438 34.601562 C 105.960938 35.902344 105.945312 35.65625 105.941406 36.074219 C 105.941406 36.125 105.945312 36.175781 105.957031 36.226562 C 105.980469 36.332031 106.03125 36.457031 106.105469 36.507812 L 106.203125 36.570312 C 106.527344 36.789062 106.71875 37.207031 106.699219 37.648438 C 106.632812 39.070312 106.5 41.796875 106.417969 42.746094 C 106.417969 42.746094 106.199219 45.253906 106.417969 46.480469 C 106.496094 46.902344 106.730469 47.113281 106.960938 47.113281 C 107.195312 47.113281 107.429688 46.902344 107.503906 46.480469 C 107.722656 45.253906 107.503906 42.746094 107.503906 42.746094 C 107.425781 41.796875 107.292969 39.070312 107.226562 37.648438 C 107.207031 37.207031 107.398438 36.789062 107.722656 36.570312 L 107.8125 36.511719 C 107.917969 36.441406 107.980469 36.289062 107.976562 36.121094 C 107.976562 36.121094 108.003906 36.261719 107.941406 34.605469 C 107.933594 34.492188 107.871094 31.363281 107.796875 31.363281 " fill-opacity="1" fill-rule="nonzero"/></g><g clip-path="url(#67f7bc54ac)"><path fill="#100f0d" d="M 111.246094 34.371094 C 111.152344 32.785156 110.609375 31.191406 109.832031 31.191406 C 109.058594 31.191406 108.515625 32.785156 108.421875 34.371094 C 108.371094 35.230469 108.601562 36.117188 109.058594 36.589844 L 109.050781 36.589844 L 109.054688 36.589844 C 109.066406 36.601562 109.089844 36.621094 109.105469 36.632812 C 109.136719 36.664062 109.171875 36.695312 109.210938 36.722656 C 109.222656 36.730469 109.234375 36.742188 109.246094 36.757812 C 109.464844 36.992188 109.585938 37.335938 109.570312 37.695312 C 109.503906 39.136719 109.371094 41.898438 109.292969 42.859375 C 109.292969 42.859375 109.28125 42.996094 109.265625 43.21875 C 109.234375 43.652344 109.191406 44.417969 109.195312 45.167969 C 109.195312 45.707031 109.21875 46.242188 109.292969 46.640625 C 109.367188 47.070312 109.601562 47.285156 109.835938 47.285156 C 110.066406 47.285156 110.300781 47.070312 110.375 46.640625 C 110.453125 46.203125 110.476562 45.605469 110.472656 45.011719 C 110.472656 44.425781 110.445312 43.847656 110.417969 43.4375 C 110.394531 43.085938 110.375 42.859375 110.375 42.859375 C 110.296875 41.898438 110.164062 39.136719 110.097656 37.695312 C 110.082031 37.335938 110.203125 36.992188 110.417969 36.753906 C 110.433594 36.742188 110.445312 36.730469 110.457031 36.722656 C 110.496094 36.695312 110.53125 36.664062 110.5625 36.632812 C 110.578125 36.621094 110.601562 36.601562 110.613281 36.589844 L 110.617188 36.589844 L 110.609375 36.589844 C 111.066406 36.117188 111.296875 35.230469 111.246094 34.371094 " fill-opacity="1" fill-rule="nonzero"/></g><g fill="#000000" fill-opacity="1"><g transform="translate(97.358713, 34.976791)"><g><path d="M 0.890625 -2.203125 L 0.015625 -2.203125 L 0.015625 -2.84375 L 2.5625 -2.84375 L 2.5625 -2.203125 L 1.6875 -2.203125 L 1.6875 0 L 0.890625 0 Z M 0.890625 -2.203125 "/></g></g></g><g fill="#000000" fill-opacity="1"><g transform="translate(99.938546, 34.976791)"><g><path d="M 2.859375 0 L 2.84375 -1.5 L 2.109375 -0.28125 L 1.75 -0.28125 L 1.03125 -1.46875 L 1.03125 0 L 0.28125 0 L 0.28125 -2.84375 L 0.953125 -2.84375 L 1.953125 -1.203125 L 2.921875 -2.84375 L 3.578125 -2.84375 L 3.59375 0 Z M 2.859375 0 "/></g></g></g></svg>